<svg width="20" height="20" viewBox="0 0 20 20" fill="none" xmlns="http://www.w3.org/2000/svg">
<path d="M18.3334 13.95V3.89162C18.3334 2.89162 17.5167 2.14995 16.525 2.23329H16.475C14.725 2.38329 12.0667 3.27495 10.5834 4.20829L10.4417 4.29995C10.2 4.44995 9.80002 4.44995 9.55835 4.29995L9.35002 4.17495C7.86669 3.24995 5.21669 2.36662 3.46669 2.22495C2.47502 2.14162 1.66669 2.89162 1.66669 3.88329V13.95C1.66669 14.75 2.31669 15.5 3.11669 15.6L3.35835 15.6333C5.16669 15.875 7.95835 16.7916 9.55835 17.6666L9.59169 17.6833C9.81669 17.8083 10.175 17.8083 10.3917 17.6833C11.9917 16.8 14.7917 15.875 16.6084 15.6333L16.8834 15.6C17.6834 15.5 18.3334 14.75 18.3334 13.95Z" stroke="#90909A" stroke-width="1.5" stroke-linecap="round" stroke-linejoin="round"/>
<path d="M10 4.57495V17.075" stroke="#90909A" stroke-width="1.5" stroke-linecap="round" stroke-linejoin="round"/>
<path d="M6.45831 7.07495H4.58331" stroke="#90909A" stroke-width="1.5" stroke-linecap="round" stroke-linejoin="round"/>
<path d="M7.08331 9.57495H4.58331" stroke="#90909A" stroke-width="1.5" stroke-linecap="round" stroke-linejoin="round"/>
</svg>
