<svg width="24" height="24" viewBox="0 0 24 24" fill="none" xmlns="http://www.w3.org/2000/svg">
<path d="M22.101 10.5619L2.753 1.12294C2.56707 1.03234 2.36114 0.990531 2.15459 1.00146C1.94805 1.01239 1.74768 1.07569 1.57235 1.18541C1.39702 1.29513 1.25248 1.44766 1.15236 1.62864C1.05223 1.80963 0.999799 2.01311 1 2.21994V2.25494C1.0001 2.41846 1.02025 2.58134 1.06 2.73994L2.916 10.1639C2.94088 10.2628 2.9954 10.3518 3.07226 10.4188C3.14912 10.4858 3.24464 10.5277 3.346 10.5389L11.503 11.4459C11.6387 11.4623 11.7638 11.5278 11.8545 11.63C11.9452 11.7323 11.9952 11.8642 11.9952 12.0009C11.9952 12.1376 11.9452 12.2696 11.8545 12.3719C11.7638 12.4741 11.6387 12.5396 11.503 12.5559L3.346 13.4629C3.24464 13.4741 3.14912 13.5161 3.07226 13.5831C2.9954 13.6501 2.94088 13.739 2.916 13.8379L1.06 21.2609C1.02025 21.4196 1.0001 21.5824 1 21.7459V21.7809C0.999969 21.9877 1.05252 22.1911 1.15272 22.3719C1.25292 22.5527 1.39747 22.7051 1.57277 22.8147C1.74808 22.9243 1.94838 22.9876 2.15484 22.9984C2.36131 23.0093 2.56714 22.9675 2.753 22.8769L22.1 13.4379C22.3694 13.3065 22.5965 13.102 22.7554 12.8477C22.9142 12.5935 22.9985 12.2997 22.9985 11.9999C22.9985 11.7002 22.9142 11.4064 22.7554 11.1521C22.5965 10.8979 22.3704 10.6934 22.101 10.5619Z" fill="white"/>
</svg>
